# xmcd
#
# Track frame offsets:
#	150
#	14658
#	28169
#	40674
#	49974
#	63045
#	74842
#	86192
#	97501
#	108484
#	118971
#	129482
#
# Disc length: 1861 seconds
#
# Revision: 0
# Processed by: cddbd v1.5.1PL2 Copyright (c) Steve Scherf et al.
# Submitted via: dBpowerAMP V4.0
#
DISCID=a807430c
DTITLE=Milionário and José Rico - Milionário and José Rico - Volume 8
DYEAR=2001
DGENRE=Country
TTITLE0=Jogo do amor
TTITLE1=Lágrimas que choram
TTITLE2=Onde está meu bem
TTITLE3=Recordando a infância
TTITLE4=Vida cor de rosa
TTITLE5=Tortura do destino
TTITLE6=Mensagem do além
TTITLE7=Martírio de dor
TTITLE8=Amor com amor se paga
TTITLE9=Jamais quero te ver
TTITLE10=Tudo passa
TTITLE11=Opinião
EXTD=
EXTT0=
EXTT1=
EXTT2=
EXTT3=
EXTT4=
EXTT5=
EXTT6=
EXTT7=
EXTT8=
EXTT9=
EXTT10=
EXTT11=
PLAYORDER=
